<svg xmlns="http://www.w3.org/2000/svg" xmlns:xlink="http://www.w3.org/1999/xlink" preserveAspectRatio="xMidYMid" width="128" height="20" viewBox="0 0 128 20">
  <defs>
    <style>

      .cls-3 {
        fill: #f28b00;
      }
    </style>
  </defs>
  <g id="rating_starsvg">
    <path d="M127.958,7.555 C127.833,7.167 127.475,6.904 127.072,6.904 C127.072,6.904 120.543,6.904 120.543,6.904 C120.543,6.904 118.527,0.637 118.527,0.637 C118.401,0.249 118.044,-0.014 117.640,-0.014 C117.236,-0.014 116.878,0.249 116.753,0.637 C116.753,0.637 114.736,6.903 114.736,6.903 C114.736,6.903 108.210,6.903 108.210,6.903 C107.806,6.903 107.448,7.166 107.323,7.553 C107.199,7.941 107.335,8.367 107.662,8.605 C107.662,8.605 112.941,12.479 112.941,12.479 C112.941,12.479 110.926,18.747 110.926,18.747 C110.801,19.135 110.938,19.558 111.264,19.798 C111.429,19.917 111.621,19.978 111.813,19.978 C112.005,19.978 112.197,19.917 112.360,19.798 C112.360,19.798 117.639,15.926 117.639,15.926 C117.639,15.926 122.920,19.798 122.920,19.798 C123.249,20.039 123.690,20.039 124.017,19.798 C124.345,19.560 124.478,19.135 124.355,18.749 C124.355,18.749 122.340,12.481 122.340,12.481 C122.340,12.481 127.620,8.606 127.620,8.606 C127.947,8.367 128.082,7.942 127.958,7.555 Z" id="path-1" class="cls-3" fill-rule="evenodd"/>
    <path d="M101.825,7.555 C101.700,7.167 101.342,6.904 100.939,6.904 C100.939,6.904 94.410,6.904 94.410,6.904 C94.410,6.904 92.394,0.637 92.394,0.637 C92.269,0.249 91.911,-0.014 91.507,-0.014 C91.103,-0.014 90.745,0.249 90.620,0.637 C90.620,0.637 88.603,6.903 88.603,6.903 C88.603,6.903 82.077,6.903 82.077,6.903 C81.673,6.903 81.315,7.166 81.191,7.553 C81.067,7.941 81.202,8.367 81.529,8.605 C81.529,8.605 86.808,12.479 86.808,12.479 C86.808,12.479 84.793,18.747 84.793,18.747 C84.668,19.135 84.805,19.558 85.132,19.798 C85.296,19.917 85.488,19.978 85.680,19.978 C85.872,19.978 86.064,19.917 86.227,19.798 C86.227,19.798 91.506,15.926 91.506,15.926 C91.506,15.926 96.787,19.798 96.787,19.798 C97.115,20.039 97.557,20.039 97.884,19.798 C98.212,19.560 98.345,19.135 98.223,18.749 C98.223,18.749 96.207,12.481 96.207,12.481 C96.207,12.481 101.487,8.606 101.487,8.606 C101.814,8.367 101.949,7.942 101.825,7.555 Z" id="path-2" class="cls-3" fill-rule="evenodd"/>
    <path d="M74.317,7.555 C74.191,7.167 73.834,6.904 73.430,6.904 C73.430,6.904 66.902,6.904 66.902,6.904 C66.902,6.904 64.885,0.637 64.885,0.637 C64.760,0.249 64.402,-0.014 63.998,-0.014 C63.594,-0.014 63.237,0.249 63.111,0.637 C63.111,0.637 61.094,6.903 61.094,6.903 C61.094,6.903 54.569,6.903 54.569,6.903 C54.165,6.903 53.807,7.166 53.682,7.553 C53.558,7.941 53.694,8.367 54.021,8.605 C54.021,8.605 59.299,12.479 59.299,12.479 C59.299,12.479 57.285,18.747 57.285,18.747 C57.160,19.135 57.297,19.558 57.623,19.798 C57.788,19.917 57.979,19.978 58.172,19.978 C58.364,19.978 58.555,19.917 58.719,19.798 C58.719,19.798 63.998,15.926 63.998,15.926 C63.998,15.926 69.279,19.798 69.279,19.798 C69.607,20.039 70.048,20.039 70.376,19.798 C70.704,19.560 70.837,19.135 70.714,18.749 C70.714,18.749 68.698,12.481 68.698,12.481 C68.698,12.481 73.979,8.606 73.979,8.606 C74.305,8.367 74.441,7.942 74.317,7.555 Z" id="path-3" class="cls-3" fill-rule="evenodd"/>
    <path d="M48.184,7.555 C48.058,7.167 47.701,6.904 47.297,6.904 C47.297,6.904 40.769,6.904 40.769,6.904 C40.769,6.904 38.752,0.637 38.752,0.637 C38.627,0.249 38.269,-0.014 37.865,-0.014 C37.461,-0.014 37.104,0.249 36.978,0.637 C36.978,0.637 34.961,6.903 34.961,6.903 C34.961,6.903 28.436,6.903 28.436,6.903 C28.031,6.903 27.674,7.166 27.549,7.553 C27.425,7.941 27.561,8.367 27.888,8.605 C27.888,8.605 33.166,12.479 33.166,12.479 C33.166,12.479 31.152,18.747 31.152,18.747 C31.027,19.135 31.164,19.558 31.490,19.798 C31.655,19.917 31.846,19.978 32.039,19.978 C32.231,19.978 32.422,19.917 32.586,19.798 C32.586,19.798 37.865,15.926 37.865,15.926 C37.865,15.926 43.146,19.798 43.146,19.798 C43.474,20.039 43.915,20.039 44.243,19.798 C44.571,19.560 44.704,19.135 44.581,18.749 C44.581,18.749 42.566,12.481 42.566,12.481 C42.566,12.481 47.846,8.606 47.846,8.606 C48.172,8.367 48.308,7.942 48.184,7.555 Z" id="path-4" class="cls-3" fill-rule="evenodd"/>
    <path d="M20.675,7.555 C20.550,7.167 20.192,6.904 19.789,6.904 C19.789,6.904 13.260,6.904 13.260,6.904 C13.260,6.904 11.244,0.637 11.244,0.637 C11.119,0.249 10.761,-0.014 10.357,-0.014 C9.953,-0.014 9.595,0.249 9.470,0.637 C9.470,0.637 7.453,6.903 7.453,6.903 C7.453,6.903 0.928,6.903 0.928,6.903 C0.523,6.903 0.165,7.166 0.041,7.553 C-0.083,7.941 0.052,8.367 0.379,8.605 C0.379,8.605 5.658,12.479 5.658,12.479 C5.658,12.479 3.643,18.747 3.643,18.747 C3.518,19.135 3.655,19.558 3.982,19.798 C4.146,19.917 4.338,19.978 4.530,19.978 C4.722,19.978 4.914,19.917 5.077,19.798 C5.077,19.798 10.357,15.926 10.357,15.926 C10.357,15.926 15.638,19.798 15.638,19.798 C15.966,20.039 16.407,20.039 16.734,19.798 C17.062,19.560 17.196,19.135 17.073,18.749 C17.073,18.749 15.057,12.481 15.057,12.481 C15.057,12.481 20.337,8.606 20.337,8.606 C20.664,8.367 20.800,7.942 20.675,7.555 Z" id="path-5" class="cls-3" fill-rule="evenodd"/>
  </g>
</svg>
